<?xml version="1.0" encoding="utf-8" ?>
<svg xmlns="http://www.w3.org/2000/svg" xmlns:xlink="http://www.w3.org/1999/xlink" width="512" height="512">
	<path fill="#020313" transform="scale(0.5 0.5)" d="M-0 -0L1024 0L1024 1024L-0 1024L0 -0Z"/>
	<path fill="#03A2BF" transform="scale(0.5 0.5)" d="M875.56 630.282C880.202 632.07 884.058 634.973 888.287 637.533C894.772 641.457 902.398 644.932 909.837 646.455C914.396 657.172 916.267 668.57 918.96 679.843C908.041 671.047 896.625 661.185 888.293 649.819C883.682 643.53 880 636.697 875.56 630.282Z"/>
	<path fill="#0F4C5C" transform="scale(0.5 0.5)" d="M797.092 498.821C798.208 498.16 799.162 497.84 800.406 497.465C803.398 496.563 805.84 494.677 808.649 493.346C811.445 492.021 814.461 491.209 817.25 489.864L833.795 481.977C836.577 480.647 839.168 479.111 842.088 478.083C842.948 477.781 902.819 500.069 908.999 501.926L909.982 502.315L880.102 513.843C871.894 516.355 863.245 518.432 854.6 518.47C844.451 518.515 832.661 515.088 823.365 511.227C820.047 509.849 817.044 507.941 813.803 506.423C811.086 505.149 808.167 504.438 805.411 503.258C802.548 502.032 799.854 500.283 797.092 498.821Z"/>
	<path fill="#FFEC02" transform="scale(0.5 0.5)" d="M139.423 555.101L141.212 555.01L153.394 564.784C162.437 572.279 170.576 579.982 183.158 578.995L194.982 577.016C203.385 582.05 210.607 589.577 218.17 595.818L215.965 597.36L168.95 629.142L104.94 670.748L139.423 555.101Z"/>
	<path fill="#03A2BF" transform="scale(0.5 0.5)" d="M797.092 498.821C799.854 500.283 802.548 502.032 805.411 503.258C808.167 504.438 811.086 505.149 813.803 506.423C817.044 507.941 820.047 509.849 823.365 511.227C832.661 515.088 844.451 518.515 854.6 518.47C863.245 518.432 871.894 516.355 880.102 513.843L909.982 502.315C916.865 504.652 926.039 507.599 929.519 514.5C930.472 516.388 931.171 518.172 931.548 520.25L931.683 520.972C933.013 528.757 931.124 535.733 926.454 542.025C921.599 548.566 914.184 552.082 906.5 554.056L905.632 554.284C897.644 556.264 887.433 555.09 879.136 555.005L790.336 554.58L791.197 553.882C804.836 542.711 806.681 523.901 800.346 508.219C799.273 505.562 796.159 501.685 796.43 499.027L797.092 498.821Z"/>
	<path fill="#E36414" transform="scale(0.5 0.5)" d="M790.336 554.58L879.136 555.005C881.205 566.149 886.387 576.821 889.992 587.519L909.837 646.455C902.398 644.932 894.772 641.457 888.287 637.533C884.058 634.973 880.202 632.07 875.56 630.282L854.199 614.754C845.717 608.3 837.624 601.111 828.095 596.171C817.779 588.641 802.438 585.901 790.015 587.788C779.528 589.38 770.627 595.989 762.25 602L745.781 613.491L719 632.058C714.255 635.235 709.953 638.631 704.997 641.551C703.51 640.35 701.236 639.816 699.5 639.024L687.516 633.091L663.263 620.688C658.801 618.41 654.313 615.821 649.609 614.1C653.576 611.661 658.051 610.001 662.25 608.001L685.392 597.348L711.533 586.157C714.217 584.956 716.743 583.408 719.434 582.25C724.657 580.003 730.294 578.436 735.59 576.287L761.3 565.294C769.613 561.864 778.4 559.299 786.595 555.671L790.336 554.58Z"/>
	<path fill="#03A2BF" transform="scale(0.5 0.5)" d="M96.8522 510.928C97.2452 509.896 98.7865 507.947 99.8047 507.498C102.874 506.143 106.974 506.082 110.25 504.983C112.672 504.171 114.975 502.703 117.425 501.814L152.115 489.469C165.07 484.973 178.92 481.464 191.449 476.009L205.426 469.973C208.487 468.804 210.94 467.503 214.261 468.305C218.504 470.351 221.976 473.421 225.661 476.295C227.561 477.777 229.891 479.239 231.409 481.117L268.817 507.875L297.093 554.597L279.314 554.58L209.225 554.676L157.343 554.906C151.975 555.014 146.554 554.355 141.212 555.01L139.423 555.101L138.982 555.205C136.44 555.659 133.375 555.469 130.764 555.455C120.838 555.403 111.801 553.905 103.355 548.325C97.7362 544.613 93.4724 538.972 92.1187 532.321C90.4991 524.363 92.5808 517.622 96.8522 510.928Z"/>
	<path fill="#0F4C5C" transform="scale(0.5 0.5)" d="M96.8522 510.928C97.2452 509.896 98.7865 507.947 99.8047 507.498C102.874 506.143 106.974 506.082 110.25 504.983C112.672 504.171 114.975 502.703 117.425 501.814L152.115 489.469C165.07 484.973 178.92 481.464 191.449 476.009L205.426 469.973C208.487 468.804 210.94 467.503 214.261 468.305C218.504 470.351 221.976 473.421 225.661 476.295C227.561 477.777 229.891 479.239 231.409 481.117C210.373 480.298 191.689 486.698 172.752 495.068C168.046 497.148 163.261 498.936 158.723 501.384L135.795 514.874C132.919 516.459 129.741 517.444 126.817 518.942C121.866 521.479 114.818 526.112 109.238 526.649C107.071 526.858 102.885 524.838 101.383 523.318C99.2322 521.141 98.4432 518.418 97.8939 515.481C97.615 513.99 97.6481 512.22 96.8522 510.928Z"/>
	<path fill="#9A031E" transform="scale(0.5 0.5)" d="M354.779 722.851L814.06 722.915C828.484 723.226 841.473 724.021 853.167 733.648C864.335 742.843 867.748 755.191 868.944 769.018C870.267 784.322 866.12 798.521 860.149 812.415C855.094 824.178 848.75 835.35 840.399 845.12C836.919 849.191 833.229 853.719 829.298 857.316C815.491 869.952 796.729 878.728 777.988 880.156C765.94 881.073 753.578 880.587 741.495 880.562L670.7 880.135L576.793 880.795L453.25 880.477L309.736 880.43L263.969 880.279C254.57 880.137 245.135 880.246 235.815 878.873C221.959 876.832 205.47 868.245 194.934 859.045C171.68 838.74 157.682 812.208 153.295 781.664C151.166 766.844 154.91 750.603 164.078 738.75C169.801 731.35 180.615 724.707 190.04 723.698L196.113 723.395L354.779 722.851Z"/>
	<path fill="#FB8B24" transform="scale(0.5 0.5)" d="M492.285 131.122L525.798 130.827C529.165 130.262 532.58 130.914 535.963 131.067L560.869 132.777C626.791 139.626 691.379 161.683 745.537 200.297C780.65 225.334 810.946 257.351 832.386 294.845C834.649 298.803 837.155 302.581 839.211 306.663C850.661 329.391 858.131 353.653 862.271 378.702L865.586 409.943L865.452 417.496L698.419 417.445L653.665 417.432C648.617 417.422 642.05 418.174 637.143 417.357L423.019 417.498L419.901 417.534L249.901 417.531L189.771 417.517L170.389 417.509C166.705 417.5 162.236 417.995 158.734 416.791C159.092 414.186 158.902 411.396 159.013 408.75C160.281 378.361 167.047 347.833 179.328 320.006C182.069 313.794 185.474 307.892 188.629 301.886C194.513 290.686 200.66 279.992 208.085 269.728C219.96 253.313 234.012 238.305 248.843 224.534C258.019 214.869 268.567 206.634 279.343 198.832C301.623 182.702 325.693 170.078 351.067 159.611C353.831 158.471 356.446 156.934 359.247 155.9C390.432 144.39 423.716 137.249 456.687 133.343C459.458 131.575 487.938 131.132 492.285 131.122Z"/>
	<path fill="#F9C87E" transform="scale(0.5 0.5)" d="M492.285 131.122L525.798 130.827L541.547 140.833C535.497 143.766 527.906 144.859 521.5 147.016C509.07 151.201 497.219 156.725 485.5 162.541C472.373 169.056 459.774 177.605 447.607 185.75C432.174 196.08 417.011 207.316 402.854 219.354C386.584 233.189 371.739 248.931 357.936 265.166L343.917 281.5C333.673 294.581 324.333 308.408 315.549 322.5C309.202 332.684 301.516 343.162 297.8 354.667C296.359 344.676 293.628 335.493 291.199 325.751L320.52 275.5L335.238 254.559C339.32 248.222 344.493 242.764 349.206 236.965C357.638 226.589 365.931 217.314 375.468 207.922C377.755 205.67 379.859 203.149 382.25 201.021C384.366 199.137 386.745 197.568 388.89 195.72C407.373 179.799 426.863 165.042 447.807 152.447C451.234 150.386 454.969 148.815 458.454 146.832L471.098 140.161C478.025 136.481 484.491 132.8 492.285 131.122Z"/>
	<path fill="#F9C87E" transform="scale(0.5 0.5)" d="M248.843 224.534C258.019 214.869 268.567 206.634 279.343 198.832C301.623 182.702 325.693 170.078 351.067 159.611C353.831 158.471 356.446 156.934 359.247 155.9C390.432 144.39 423.716 137.249 456.687 133.343C456.021 134.235 455.554 134.716 454.504 135.16C449.638 137.216 444.44 138.621 439.5 140.515C432.412 143.233 425.41 146.435 418.643 149.875L397.041 161.898L378.053 172.619C374.241 174.963 370.841 177.795 367.157 180.306L350.564 191.772C347.999 193.701 345.729 196.214 343.25 198.293L320.194 218.98C303.176 235.748 287.011 253.015 272.986 272.441C263.591 285.455 255.533 299.199 247.675 313.162C241.353 324.396 234.873 335.852 229.83 347.729L231.58 332.417L232.766 309.25C234.245 291.36 236.968 273.458 240.275 255.821C241.622 248.634 242.964 241.278 245.094 234.28C246.114 230.929 248.194 227.934 248.843 224.534Z"/>
	<path fill="#E36414" transform="scale(0.5 0.5)" d="M525.798 130.827C529.165 130.262 532.58 130.914 535.963 131.067L560.869 132.777C626.791 139.626 691.379 161.683 745.537 200.297C780.65 225.334 810.946 257.351 832.386 294.845C834.649 298.803 837.155 302.581 839.211 306.663C850.661 329.391 858.131 353.653 862.271 378.702L865.586 409.943L865.452 417.496L698.419 417.445L653.665 417.432C648.617 417.422 642.05 418.174 637.143 417.357L423.019 417.498L419.901 417.534C421.029 406.279 422.892 395.45 425.692 384.485C426.525 381.226 428.043 378.094 428.803 374.873C429.512 371.87 429.714 369.291 430.879 366.308L431.475 366.072L432.25 365.998C434.248 360.272 437.168 355.219 440.067 349.946C442.958 344.688 445.682 339.221 449.053 334.25C451.327 330.896 454.034 327.826 456.461 324.581C458.122 322.36 459.594 319.941 461.406 317.85C463.841 315.039 466.672 312.746 469.25 310.097C471.289 308.002 472.873 305.572 475.073 303.595C482.817 296.634 491.835 290.733 500.5 285.029C502.77 283.534 504.838 281.743 507.13 280.277C509.52 278.748 512.204 277.618 514.688 276.241C522.871 271.707 530.768 267.866 540.085 265.97C543.615 265.252 547.393 265.021 550.98 264.496C558.29 263.427 565.091 262.352 572.512 262.462L601.714 263.99C605.153 264.02 608.937 264.296 612.323 263.638C619.487 262.245 626.875 258.639 632.781 254.427L633.5 253.908C638.517 250.338 643.644 245.397 647.443 240.554C644.565 235.999 640.737 232.008 637.168 227.99L627.806 217.193L604.708 191.549C589.901 176.601 573.472 163.663 556.351 151.494C551.37 147.953 546.816 143.963 541.547 140.833L525.798 130.827Z"/>
	<path fill="#5F0F40" transform="scale(0.5 0.5)" d="M865.586 409.943C866.348 416.881 865.913 424.165 865.939 431.159L865.886 467.036L825.093 467.026L763.016 467.177L740.472 467.229C734.998 467.149 729.36 466.12 723.924 466.92C721.139 469.487 717.02 469.958 714.841 472.549L722.755 469.778C723.035 469.683 724.453 469.075 724.715 469.109C725.832 469.254 727.899 470.52 729 470.993L741.077 476.139C758.988 483.513 777.535 489.881 794.993 498.25L796.43 499.027C796.159 501.685 799.273 505.562 800.346 508.219C806.681 523.901 804.836 542.711 791.197 553.882L790.336 554.58L786.595 555.671C778.4 559.299 769.613 561.864 761.3 565.294L735.59 576.287C730.294 578.436 724.657 580.003 719.434 582.25C716.743 583.408 714.217 584.956 711.533 586.157L685.392 597.348L662.25 608.001C658.051 610.001 653.576 611.661 649.609 614.1C654.313 615.821 658.801 618.41 663.263 620.688L687.516 633.091L699.5 639.024C701.236 639.816 703.51 640.35 704.997 641.551C709.953 638.631 714.255 635.235 719 632.058L745.781 613.491L762.25 602C770.627 595.989 779.528 589.38 790.015 587.788C802.438 585.901 817.779 588.641 828.095 596.171L828.643 597.018C832.369 602.594 838.669 606.584 842.805 611.871C847.582 617.976 850.078 625.139 852.177 632.478C855.442 643.901 857.583 655.106 855.551 667.006C852.037 687.59 839.694 705.822 822.5 717.572L814.06 722.915L354.779 722.851L196.113 723.395C193.995 721.881 191.198 721.069 188.893 719.759C183.116 716.477 178.653 711.795 174.219 706.933C158.173 689.343 155.108 661.91 162.968 640C164.26 636.396 167.571 634.429 168.85 631.347C169.032 630.909 168.926 629.67 168.95 629.142L215.965 597.36L218.17 595.818C210.607 589.577 203.385 582.05 194.982 577.016L183.158 578.995C170.576 579.982 162.437 572.279 153.394 564.784L141.212 555.01C146.554 554.355 151.975 555.014 157.343 554.906L209.225 554.676L279.314 554.58L297.093 554.597L268.817 507.875L231.409 481.117C229.891 479.239 227.561 477.777 225.661 476.295C221.976 473.421 218.504 470.351 214.261 468.305L214.852 467.457C207.858 466.274 199.797 467.09 192.681 467.157L158.504 466.541L158.299 430.991C158.333 426.394 157.932 421.313 158.734 416.791C162.236 417.995 166.705 417.5 170.389 417.509L189.771 417.517L249.901 417.531L419.901 417.534L423.019 417.498L637.143 417.357C642.05 418.174 648.617 417.422 653.665 417.432L698.419 417.445L865.452 417.496L865.586 409.943Z"/>
	<path fill="#FFEC02" transform="scale(0.5 0.5)" d="M605.235 605.352C611.666 607.543 617.017 610.953 623.196 613.557C632.084 617.303 640.612 617.786 649.609 614.1C654.313 615.821 658.801 618.41 663.263 620.688L687.516 633.091L699.5 639.024C701.236 639.816 703.51 640.35 704.997 641.551L655.703 675.811C650.609 670.596 644.573 666.558 638.903 662.01L627.723 652.508L604.577 634.004C599.795 630.072 594.666 626.671 590.217 622.343L605.235 605.352Z"/>
	<path fill="#9A031E" transform="scale(0.5 0.5)" d="M209.225 554.676L279.314 554.58C285.094 555.164 290.947 554.983 296.75 554.992L323.254 555.034L409.272 555.069L677.208 555.342L758.25 555.489C767.532 555.639 777.426 554.703 786.595 555.671C778.4 559.299 769.613 561.864 761.3 565.294L735.59 576.287C730.294 578.436 724.657 580.003 719.434 582.25C716.743 583.408 714.217 584.956 711.533 586.157L685.392 597.348L662.25 608.001C658.051 610.001 653.576 611.661 649.609 614.1C640.612 617.786 632.084 617.303 623.196 613.557C617.017 610.953 611.666 607.543 605.235 605.352L590.217 622.343C585.068 617.745 579.441 613.964 573.926 609.844L557.786 597.379C554.397 595.002 550.722 593.083 547.221 590.88C540.96 589.308 533.305 590.212 527 591.397C518.424 593.008 509.325 595.583 501.423 599.327C495.521 602.123 490.131 605.424 483.921 607.611L458.143 624.656L445.294 633.166C443.603 634.299 441.753 636.027 439.923 636.847C433.875 640.168 428.321 644.474 422.642 648.378L387.631 672.88C386.857 673.426 382.586 676.748 382.263 676.731C381.896 676.711 377.067 672.238 376.25 671.564L315.094 620.053L297.19 604.809C292.782 601.087 288.562 597.364 283.558 594.434C275.455 589.689 267.783 586.929 258.389 586.343C254.492 586.293 250.424 585.883 246.556 586.193C240.787 586.655 234.579 588.488 229.325 590.811C225.852 592.347 221.774 594.92 218.17 595.818C210.607 589.577 203.385 582.05 194.982 577.016L183.158 578.995C170.576 579.982 162.437 572.279 153.394 564.784L141.212 555.01C146.554 554.355 151.975 555.014 157.343 554.906L209.225 554.676Z"/>
	<path fill="#E36414" transform="scale(0.5 0.5)" d="M547.221 590.88C554.404 591.542 561.893 592.4 568.974 593.742C574.73 594.833 601.887 601.958 605.235 605.352L590.217 622.343C585.068 617.745 579.441 613.964 573.926 609.844L557.786 597.379C554.397 595.002 550.722 593.083 547.221 590.88Z"/>
	<defs>
		<linearGradient id="gradient_0" gradientUnits="userSpaceOnUse" x1="237.29573" y1="563.62988" x2="216.09406" y2="592.98456">
			<stop offset="0" stop-color="#D89300"/>
			<stop offset="1" stop-color="#C07705"/>
		</linearGradient>
	</defs>
	<path fill="url(#gradient_0)" transform="scale(0.5 0.5)" d="M219.268 572.655C227.369 571.377 236.314 570.277 244.5 570.049C248.228 569.945 252.101 570.368 255.842 570.475L256.75 572.394C255.218 573.368 253.186 573.199 251.421 573.25C251.769 574.027 252.001 574.266 252.523 574.903C254.865 577.762 254.716 580.621 254.265 584.095L253.974 585.75L258.316 586.153L258.389 586.343C254.492 586.293 250.424 585.883 246.556 586.193C240.787 586.655 234.579 588.488 229.325 590.811C225.852 592.347 221.774 594.92 218.17 595.818C210.607 589.577 203.385 582.05 194.982 577.016L219.268 572.655Z"/>
	<path fill="#FB8B24" transform="scale(0.5 0.5)" d="M361.036 572.539C368.624 572.004 376.154 572.09 383.751 572.268C391.581 572.451 399.235 572.666 406.952 574.185C425.648 577.865 443.588 586.451 460.456 595.097L475.5 602.955C478.277 604.432 481.381 605.783 483.921 607.611L458.143 624.656L445.294 633.166C443.603 634.299 441.753 636.027 439.923 636.847L422.494 622.25L408.288 611.458L384.599 591.22L376.25 584.888C371.183 580.811 366.795 575.693 361.036 572.539Z"/>
	<path fill="#FFEC02" transform="scale(0.5 0.5)" d="M255.842 570.475C269.346 569.329 283.516 571.935 297.078 572.413L332.932 572.434L361.036 572.539C366.795 575.693 371.183 580.811 376.25 584.888L384.599 591.22L408.288 611.458L422.494 622.25L439.923 636.847C433.875 640.168 428.321 644.474 422.642 648.378L387.631 672.88C386.857 673.426 382.586 676.748 382.263 676.731C381.896 676.711 377.067 672.238 376.25 671.564L315.094 620.053L297.19 604.809C292.782 601.087 288.562 597.364 283.558 594.434C275.455 589.689 267.783 586.929 258.389 586.343L258.316 586.153L253.974 585.75L254.265 584.095C254.716 580.621 254.865 577.762 252.523 574.903C252.001 574.266 251.769 574.027 251.421 573.25C253.186 573.199 255.218 573.368 256.75 572.394L255.842 570.475Z"/>
	<path fill="#0F4C5C" transform="scale(0.5 0.5)" d="M714.841 472.549L722.755 469.778C723.035 469.683 724.453 469.075 724.715 469.109C725.832 469.254 727.899 470.52 729 470.993L741.077 476.139C758.988 483.513 777.535 489.881 794.993 498.25L796.43 499.027C796.159 501.685 799.273 505.562 800.346 508.219C806.681 523.901 804.836 542.711 791.197 553.882L790.336 554.58L786.595 555.671C777.426 554.703 767.532 555.639 758.25 555.489L677.208 555.342L409.272 555.069L323.254 555.034L296.75 554.992C290.947 554.983 285.094 555.164 279.314 554.58L297.093 554.597L268.817 507.875L268.948 507.754C272.601 505.601 276.868 503.943 280.765 502.222C292.313 497.122 304.37 492.981 315.717 487.487C317.702 486.525 321.294 484.007 323.307 483.653C325.167 483.326 337.914 489.619 340.592 490.702C355.749 496.828 371.191 502.727 387.27 505.846C397.635 507.856 409.934 507.668 420.346 506.097C431.296 504.445 441.369 499.833 451.631 495.901L487.75 481.987L504 476.02C507.471 474.819 510.677 473.334 514.454 473.49C521.045 473.763 526.819 477.524 532.807 479.807L581.889 498.171C586.098 499.633 590.313 501.68 594.715 502.458C603.478 504.005 613.068 504.854 621.902 503.551C637.798 501.206 653.499 493.665 668.585 488.307L714.841 472.549Z"/>
	<path fill="#9A031E" transform="scale(0.5 0.5)" d="M865.586 409.943C866.348 416.881 865.913 424.165 865.939 431.159L865.886 467.036L825.093 467.026L763.016 467.177L740.472 467.229C734.998 467.149 729.36 466.12 723.924 466.92C721.139 469.487 717.02 469.958 714.841 472.549L668.585 488.307C653.499 493.665 637.798 501.206 621.902 503.551C613.068 504.854 603.478 504.005 594.715 502.458C590.313 501.68 586.098 499.633 581.889 498.171L532.807 479.807C526.819 477.524 521.045 473.763 514.454 473.49C510.677 473.334 507.471 474.819 504 476.02L487.75 481.987L451.631 495.901C441.369 499.833 431.296 504.445 420.346 506.097C409.934 507.668 397.635 507.856 387.27 505.846C371.191 502.727 355.749 496.828 340.592 490.702C337.914 489.619 325.167 483.326 323.307 483.653C321.294 484.007 317.702 486.525 315.717 487.487C304.37 492.981 292.313 497.122 280.765 502.222C276.868 503.943 272.601 505.601 268.948 507.754L268.817 507.875L231.409 481.117C229.891 479.239 227.561 477.777 225.661 476.295C221.976 473.421 218.504 470.351 214.261 468.305L214.852 467.457C207.858 466.274 199.797 467.09 192.681 467.157L158.504 466.541L158.299 430.991C158.333 426.394 157.932 421.313 158.734 416.791C162.236 417.995 166.705 417.5 170.389 417.509L189.771 417.517L249.901 417.531L419.901 417.534L423.019 417.498L637.143 417.357C642.05 418.174 648.617 417.422 653.665 417.432L698.419 417.445L865.452 417.496L865.586 409.943Z"/>
	<path fill="#44050E" transform="scale(0.5 0.5)" d="M214.852 467.457C217.307 466.755 220.907 467.381 223.558 467.318L272.677 467.09L307.25 466.658L321.751 467.046C323.601 467.056 326.12 467.337 327.888 466.86C331.516 465.883 336.049 467.028 339.878 466.98L358.088 466.504L406.346 466.926L723.924 466.92C721.139 469.487 717.02 469.958 714.841 472.549L668.585 488.307C653.499 493.665 637.798 501.206 621.902 503.551C613.068 504.854 603.478 504.005 594.715 502.458C590.313 501.68 586.098 499.633 581.889 498.171L532.807 479.807C526.819 477.524 521.045 473.763 514.454 473.49C510.677 473.334 507.471 474.819 504 476.02L487.75 481.987L451.631 495.901C441.369 499.833 431.296 504.445 420.346 506.097C409.934 507.668 397.635 507.856 387.27 505.846C371.191 502.727 355.749 496.828 340.592 490.702C337.914 489.619 325.167 483.326 323.307 483.653C321.294 484.007 317.702 486.525 315.717 487.487C304.37 492.981 292.313 497.122 280.765 502.222C276.868 503.943 272.601 505.601 268.948 507.754L268.817 507.875L231.409 481.117C229.891 479.239 227.561 477.777 225.661 476.295C221.976 473.421 218.504 470.351 214.261 468.305L214.852 467.457Z"/>
</svg>
